<?xml version="1.0" encoding="utf-8"?>
<!-- Svg Vector Icons : http://www.onlinewebfonts.com/icon -->
<!DOCTYPE svg PUBLIC "-//W3C//DTD SVG 1.1//EN" "http://www.w3.org/Graphics/SVG/1.1/DTD/svg11.dtd">
<svg version="1.1" xmlns="http://www.w3.org/2000/svg" xmlns:xlink="http://www.w3.org/1999/xlink" x="0px" y="0px" viewBox="0 0 1000 1000" enable-background="new 0 0 1000 1000" xml:space="preserve">
<metadata> Svg Vector Icons : http://www.onlinewebfonts.com/icon </metadata>
<g><g transform="translate(0.000000,511.000000) scale(0.100000,-0.100000)"><path d="M4053.5,4111.7l-224.1-450.2l-425.1-6.3l-425.1-6.3l-142.4-69.1c-268-131.9-448.1-376.9-494.2-674.3c-29.3-182.2-29.3-2747.4-2.1-2931.6c29.3-182.2,123.5-368.5,245-487.9c136.1-134,203.1-175.9,360.2-224.1c127.7-39.8,194.8-41.9,2052.1-41.9c2091.9,0,2027-4.2,2234.3,117.3c111,64.9,284.8,249.2,343.4,362.3c98.4,196.8,104.7,276.4,104.7,1719.2c0,743.4-10.5,1411.4-20.9,1484.7c-39.8,284.8-234.5,548.6-500.5,678.5l-138.2,67l-429.3,10.5l-429.3,10.5l-219.9,446l-217.8,443.9H5000h-722.4L4053.5,4111.7z M5404.1,3230.1l224.1-450.2h586.3h586.3V1439.7V99.5H5000H3199.1v1340.2v1340.2h586.3h586.3l224.1,450.2l226.1,450.2h178h178L5404.1,3230.1z"/><path d="M4723.6,2279.4c-261.7-83.8-469.1-295.3-561.2-569.6c-37.7-106.8-44-169.6-37.7-312c14.6-330.9,192.6-598.9,496.3-749.7c150.8-75.4,165.4-77.5,379-77.5s228.3,2.1,379,77.5c194.8,96.3,330.9,234.5,423,431.4c62.8,129.8,67,157.1,67,360.2c0,203.1-4.2,230.3-67,360.2c-75.4,159.1-219.9,326.7-349.7,402C5249.2,2319.2,4951.8,2352.7,4723.6,2279.4z"/><path d="M1209.8,200C472.7-193.6,100-677.3,100-1240.6c0-686.8,554.9-1258.5,1633.3-1681.5c571.7-224.1,1275.3-385.3,2052.1-473.3L4110-3431l10.5-454.4l10.5-454.4l655.4,653.3l653.3,655.4l-659.6,659.6l-659.6,659.6v-410.4c0-226.2-4.2-414.6-10.5-420.9c-16.7-14.7-496.3,41.9-822.9,98.4c-959.1,167.5-1748.5,479.5-2106.6,833.4c-148.7,148.7-201,245-201,372.7c0,161.2,119.4,328.8,372.7,521.4l69.1,52.4L1415-179l-6.3,485.8L1209.8,200z"/><path d="M8580.8-179v-492.1l104.7-77.5c127.7-94.2,268-249.2,305.7-339.2c16.8-37.7,29.3-106.8,29.3-152.9c0-467-1042.8-998.8-2385.1-1216.6l-295.2-48.2V-2941c0-404.1,2.1-435.6,37.7-435.6c90,0,709.9,113.1,984.2,178C8987-2807,9900-2105.5,9900-1246.9c0,571.7-368.5,1053.3-1114,1451.1l-205.2,108.9V-179z"/></g></g>
</svg>