<?xml version="1.0" encoding="utf-8"?>
<!-- Svg Vector Icons : http://www.onlinewebfonts.com/icon -->
<!DOCTYPE svg PUBLIC "-//W3C//DTD SVG 1.1//EN" "http://www.w3.org/Graphics/SVG/1.1/DTD/svg11.dtd">
<svg version="1.1" xmlns="http://www.w3.org/2000/svg" xmlns:xlink="http://www.w3.org/1999/xlink" x="0px" y="0px" viewBox="0 0 1000 1000" enable-background="new 0 0 1000 1000" xml:space="preserve">
<metadata> Svg Vector Icons : http://www.onlinewebfonts.com/icon </metadata>
<g><g transform="translate(0.000000,511.000000) scale(0.100000,-0.100000)"><path d="M3376.8,4549.2c-430.8-64.6-827.2-351.1-1018.9-741c-118.5-243.4-148.6-383.4-148.6-693.6v-265h215.4H2640v191.7c0,247.7,28,392.1,109.9,555.8c122.8,252,364,441.6,644.1,499.7c88.3,19.4,626.9,23.7,2078.7,19.4l1960.3-6.5l163.7-77.6c288.7-137.9,486.8-400.7,536.4-708.7c10.8-77.6,21.5-310.2,21.5-521.3v-379.1l107.7-12.9c60.3-6.5,157.2-19.4,217.6-25.9l109.9-12.9l-8.6,545c-8.6,491.1-12.9,562.2-56,687.2c-112,336-364.1,635.5-663.5,790.6c-338.2,176.6-187.4,165.9-2388.9,170.2C4363.4,4566.4,3454.3,4560,3376.8,4549.2z"/><path d="M787.5,2442.4c-288.7-92.6-473.9-254.2-601-517L109,1761.7l-6.5-2636.7C96-3724.8,93.9-3606.3,205.9-3830.4c122.8-239.1,422.2-448.1,710.9-493.3c185.3-28,2143.4-28,2326.5,0c286.5,45.2,575.2,247.7,697.9,491.1c124.9,247.7,120.6,133.6,120.6,2912.4c0,2804.7,4.3,2684-129.2,2918.9c-75.4,131.4-258.5,310.2-383.4,374.8c-209,105.6-258.5,109.9-1490.7,107.7C1013.7,2481.2,895.2,2476.9,787.5,2442.4z M1218.3,2009.5c0-28-53.9-77.6-157.2-148.6c-88.3-58.2-237-189.6-331.7-290.8c-174.5-187.4-217.6-211.1-265-152.9c-34.5,40.9,40.9,269.3,129.2,385.6c112,146.5,224,215.4,430.8,260.7C1155.9,2093.5,1218.3,2076.2,1218.3,2009.5z M2209.2-3401.7c124.9-64.6,204.6-208.9,180.9-329.6c-19.4-101.3-118.5-215.4-215.4-247.7c-215.4-71.1-450.2,133.6-407.1,357.6c23.7,135.7,168,256.4,312.3,265C2099.4-3354.3,2157.5-3375.9,2209.2-3401.7z"/><path d="M8163.2,1761.7c-191.7-96.9-122.8-377,92.6-377c258.5,0,491.1-86.2,672.1-249.9c372.7-336,486.8-894,271.4-1333.4c-38.8-81.9-92.6-174.5-116.3-204.6l-45.2-53.9v189.6c0,282.2-56,381.3-215.4,381.3c-47.4,0-88.3-19.4-131.4-62.5l-62.5-62.5v-499.8v-499.8l73.3-73.2l73.2-73.2h508.4h510.5l51.7,53.9c66.8,64.6,73.3,198.2,12.9,271.4c-38.8,47.4-60.3,51.7-290.8,62.5l-252,10.8l90.5,118.5c122.8,161.6,226.2,383.4,269.3,575.2c51.7,239.1,32.3,631.2-43.1,844.4c-174.5,495.5-585.9,883.2-1025.4,967.2C8372.2,1791.9,8234.3,1796.2,8163.2,1761.7z"/><path d="M6547.6,1707.9c-127.1-51.7-155.1-224-53.8-325.3c62.5-60.3,68.9-62.5,290.8-62.5h226.2l-114.2-159.4c-193.9-269.3-271.4-521.3-271.4-876.7c0-445.9,140-784.1,452.4-1098.6c137.9-140,221.9-202.5,344.7-262.8c282.2-140,669.9-189.6,781.9-101.3c114.2,90.5,92.6,269.3-38.8,331.7c-38.8,19.4-118.5,34.5-176.7,34.5c-127.1,0-310.2,51.7-415.7,114.2c-122.8,75.4-282.2,232.7-370.5,368.4c-226.2,349-234.8,859.5-19.4,1195.5c124.9,191.7,131.4,187.4,131.4-68.9c0-209,4.3-232.7,51.7-288.7c73.2-84,211.1-84,284.3,0c51.7,60.3,51.7,64.6,51.7,560.1c0,693.6,30.2,661.3-650.6,659.2C6799.7,1727.3,6571.3,1718.7,6547.6,1707.9z"/><path d="M8322.6-1840l-168-8.6v-521.3c0-286.5-8.6-577.3-21.5-648.4c-66.8-413.6-396.4-732.4-807.8-786.3c-81.9-10.8-766.9-19.4-1518.7-19.4c-751.8,0-1380.8-2.2-1393.7-2.2c-15.1-2.1-53.9-53.9-84-114.2c-32.3-62.4-90.5-157.2-131.4-211.1l-75.4-96.9l1624.2-6.5c1548.8-4.3,1630.7-2.2,1787.9,36.6c275.7,71.1,435.1,161.5,641.9,368.3c140,140,204.6,221.9,262.8,344.7c133.6,269.3,146.5,364,146.5,1062v618.2l-47.4-4.3C8510-1831.3,8413.1-1837.8,8322.6-1840z"/><path d="M5255.2-2846c-90.5-40.9-176.6-157.2-193.9-264.9c-10.8-68.9-2.2-112,34.5-187.4c124.9-260.6,478.2-260.6,603.2,0C5836.8-3016.1,5546-2721,5255.2-2846z"/></g></g>
</svg>